<?xml version="1.0" encoding="utf-8"?>
<!-- Generator: Adobe Illustrator 16.0.0, SVG Export Plug-In . SVG Version: 6.00 Build 0)  -->
<!DOCTYPE svg PUBLIC "-//W3C//DTD SVG 1.1//EN" "http://www.w3.org/Graphics/SVG/1.1/DTD/svg11.dtd">
<svg version="1.1" id="Layer_1" xmlns="http://www.w3.org/2000/svg" xmlns:xlink="http://www.w3.org/1999/xlink" x="0px" y="0px"
	 width="792px" height="612px" viewBox="0 0 792 612" enable-background="new 0 0 792 612" xml:space="preserve">
<path fill="#ED1C24" d="M522.842,185.341c-29.006,1.79-51.979,25.87-51.979,55.325c0,35.006,41.903,58.001,50.079,133.075
	c0,2,1.621,3.622,3.621,3.622h3.488c2,0,3.621-1.622,3.621-3.622c8.178-75.074,50.081-98.069,50.081-133.075
	c0-29.455-22.974-53.535-51.979-55.325H522.842z M529.774,193.077c24.552,1.869,43.898,22.368,43.898,47.4
	c0,26.264-21.292,47.553-47.555,47.553c-26.264,0-47.554-21.289-47.554-47.553c0-25.161,19.546-45.744,44.277-47.428
	L529.774,193.077z"/>
<text transform="matrix(1 0 0 1 464.4873 144.667)" fill="#121027" font-family="'GothamExtraLight'" font-size="32.0633" letter-spacing="-2">BICITACORA</text>
<path fill="#ED1C24" d="M625.084,248.956c-13.597,0-24.619,11.023-24.619,24.621c0,13.598,11.022,24.62,24.619,24.62
	s24.619-11.022,24.619-24.62C649.703,259.979,638.681,248.956,625.084,248.956z M625.084,291.091
	c-9.673,0-17.515-7.841-17.515-17.515c0-9.673,7.842-17.515,17.515-17.515s17.514,7.841,17.514,17.515
	C642.598,283.25,634.757,291.091,625.084,291.091z"/>
<circle fill="#33A3DC" cx="525.856" cy="238.228" r="37.45"/>
<circle fill="#33A3DC" cx="625.083" cy="273.301" r="12.101"/>
<text transform="matrix(1 0 0 1 464.4873 144.667)" fill="#121027" font-family="'GothamExtraLight'" font-size="32.0633" letter-spacing="-2">BICITACORA</text>
<g>
	<text transform="matrix(1 0 0 1 504.7422 475.9199)"><tspan x="0" y="0" fill="#121027" font-family="'ArialMT'" font-size="12.0456">Fuente tipográfica</tspan><tspan x="-2.424" y="14.455" fill="#121027" font-family="'ArialMT'" font-size="12.0456">Gotham ExtraLight</tspan></text>
</g>
<path fill="#50B848" d="M626.138,269.835c-8.866,0-13.081-0.582-17.936-3.04c-1.523-0.715-5.882-4.234-5.882-4.234l-0.014,0.007
	c-6.837-6.823-7.727-16.991-7.727-26.786c0-23.399-12.827-43.972-32.082-55.58l8.176-11.666c0.145-0.205,0.26-0.42,0.354-0.641
	h10.48c1.914,0,3.466-1.552,3.466-3.465c0-1.914-1.552-3.466-3.466-3.466h-24.647c-1.914,0-3.467,1.552-3.467,3.466
	c0,1.914,1.553,3.465,3.467,3.465h5.799l-6.315,9.009c-8.091-3.824-17.077-6.157-26.57-6.615v-9.709
	c0-1.914-1.553-3.466-3.467-3.466h-16.806c-1.913,0-3.465,1.552-3.465,3.466c0,1.914,1.552,3.465,3.465,3.465h13.34v9.626v9.759
	v1.911v55.136c0,1.915,1.553,3.465,3.466,3.465c1.914,0,3.467-1.551,3.467-3.465v-55.136v-1.882v-6.23
	c32.217,1.723,57.874,27.327,57.874,58.553c0,8.454,0.006,24.564,12.566,34.143c1.166,1.304,6.717,3.897,6.717,3.897
	c5.479,2.373,10.168,2.945,19.206,2.945c1.914,0,3.466-1.551,3.466-3.466C629.604,271.387,628.052,269.835,626.138,269.835z"/>
<path fill="#ED1C24" d="M184.362,185.341c-29.006,1.79-51.979,25.87-51.979,55.325c0,35.006,41.904,58.001,50.08,133.075
	c0,2,1.621,3.622,3.621,3.622h3.489c2,0,3.621-1.622,3.621-3.622c8.178-75.074,50.081-98.069,50.081-133.075
	c0-29.455-22.974-53.535-51.979-55.325H184.362z M191.294,193.077c24.552,1.869,43.898,22.368,43.898,47.4
	c0,26.264-21.292,47.553-47.554,47.553c-26.264,0-47.554-21.289-47.554-47.553c0-25.161,19.546-45.744,44.278-47.428
	L191.294,193.077z"/>
<g>
	<path fill="#121027" d="M129.343,122.223h9.234c1.282,0,2.426,0.171,3.43,0.513c1.004,0.342,1.817,0.823,2.438,1.443
		c0.962,0.962,1.442,2.169,1.442,3.623v0.064c0,0.727-0.107,1.379-0.32,1.957c-0.214,0.577-0.508,1.09-0.882,1.539
		c-0.374,0.449-0.812,0.829-1.314,1.139s-1.042,0.54-1.62,0.689c0.727,0.128,1.416,0.348,2.068,0.657
		c0.652,0.311,1.223,0.695,1.716,1.154c0.49,0.46,0.876,0.994,1.154,1.604c0.278,0.609,0.417,1.298,0.417,2.068v0.064
		c0,1.881-0.71,3.34-2.131,4.376c-1.422,1.037-3.394,1.555-5.916,1.555h-9.715V122.223z M138.802,132.836
		c0.833,0,1.613-0.102,2.34-0.305s1.363-0.508,1.908-0.914c0.546-0.406,0.973-0.914,1.284-1.523
		c0.309-0.609,0.464-1.319,0.464-2.132v-0.064c0-1.411-0.546-2.543-1.635-3.399c-1.091-0.854-2.629-1.282-4.617-1.282h-8.113v9.619
		H138.802z M139.09,143.673c2.18,0,3.874-0.433,5.082-1.299c1.208-0.866,1.812-2.068,1.812-3.607v-0.064
		c0-0.791-0.166-1.485-0.497-2.083c-0.332-0.598-0.796-1.106-1.395-1.523c-0.599-0.417-1.314-0.732-2.148-0.946
		c-0.834-0.213-1.742-0.321-2.726-0.321h-8.786v9.844H139.09z"/>
	<path fill="#121027" d="M150.537,122.223h1.089v22.444h-1.089V122.223z"/>
	<path fill="#121027" d="M166.279,145.052c-1.582,0-3.045-0.305-4.392-0.913c-1.347-0.609-2.513-1.432-3.495-2.469
		c-0.983-1.037-1.748-2.255-2.292-3.655c-0.546-1.4-0.817-2.901-0.817-4.505v-0.064c0-1.582,0.271-3.073,0.817-4.473
		c0.544-1.4,1.309-2.629,2.292-3.687c0.982-1.058,2.153-1.897,3.51-2.517c1.357-0.62,2.838-0.93,4.442-0.93
		c1.047,0,1.982,0.091,2.806,0.272c0.822,0.182,1.575,0.433,2.26,0.753c0.685,0.32,1.309,0.695,1.876,1.122
		c0.566,0.428,1.127,0.898,1.684,1.411l-0.77,0.801c-0.471-0.449-0.968-0.876-1.492-1.283c-0.523-0.406-1.105-0.764-1.747-1.074
		c-0.643-0.31-1.342-0.556-2.101-0.738c-0.759-0.181-1.608-0.272-2.549-0.272c-1.432,0-2.753,0.277-3.96,0.833
		c-1.208,0.557-2.255,1.315-3.142,2.277c-0.887,0.962-1.583,2.084-2.084,3.367c-0.502,1.282-0.753,2.65-0.753,4.104v0.064
		c0,1.454,0.25,2.822,0.753,4.104c0.502,1.283,1.202,2.405,2.1,3.367c0.899,0.962,1.956,1.721,3.175,2.277
		c1.219,0.556,2.533,0.833,3.944,0.833c1.751,0,3.27-0.342,4.552-1.026s2.426-1.539,3.432-2.565l0.769,0.737
		c-0.535,0.535-1.107,1.038-1.716,1.507c-0.608,0.47-1.277,0.876-2.003,1.218c-0.727,0.342-1.513,0.615-2.356,0.817
		C168.176,144.95,167.263,145.052,166.279,145.052z"/>
	<path fill="#121027" d="M177.694,122.223h1.089v22.444h-1.089V122.223z"/>
	<path fill="#121027" d="M189.3,123.217h-7.984v-0.994h17.09v0.994h-8.016v21.451h-1.09V123.217z"/>
	<path fill="#121027" d="M209.275,122.062h1.026l10.645,22.605h-1.186l-3.046-6.541H202.83l-3.078,6.541h-1.122L209.275,122.062z
		 M216.233,137.132l-6.477-13.787l-6.445,13.787H216.233z"/>
	<path fill="#121027" d="M233.323,145.052c-1.582,0-3.045-0.305-4.392-0.913c-1.347-0.609-2.513-1.432-3.495-2.469
		c-0.983-1.037-1.748-2.255-2.292-3.655c-0.546-1.4-0.817-2.901-0.817-4.505v-0.064c0-1.582,0.271-3.073,0.817-4.473
		c0.544-1.4,1.309-2.629,2.292-3.687c0.982-1.058,2.153-1.897,3.51-2.517c1.357-0.62,2.838-0.93,4.442-0.93
		c1.047,0,1.982,0.091,2.806,0.272c0.822,0.182,1.575,0.433,2.26,0.753c0.685,0.32,1.309,0.695,1.876,1.122
		c0.566,0.428,1.127,0.898,1.684,1.411l-0.77,0.801c-0.471-0.449-0.968-0.876-1.492-1.283c-0.523-0.406-1.105-0.764-1.747-1.074
		c-0.643-0.31-1.342-0.556-2.101-0.738c-0.759-0.181-1.608-0.272-2.549-0.272c-1.431,0-2.752,0.277-3.959,0.833
		c-1.208,0.557-2.255,1.315-3.142,2.277c-0.887,0.962-1.583,2.084-2.084,3.367c-0.502,1.282-0.753,2.65-0.753,4.104v0.064
		c0,1.454,0.25,2.822,0.753,4.104c0.502,1.283,1.202,2.405,2.1,3.367c0.899,0.962,1.956,1.721,3.175,2.277
		c1.219,0.556,2.533,0.833,3.944,0.833c1.751,0,3.27-0.342,4.552-1.026s2.426-1.539,3.432-2.565l0.769,0.737
		c-0.535,0.535-1.107,1.038-1.716,1.507c-0.608,0.47-1.277,0.876-2.003,1.218c-0.727,0.342-1.513,0.615-2.356,0.817
		C235.219,144.95,234.306,145.052,233.323,145.052z"/>
	<path fill="#121027" d="M254.708,145.052c-1.71,0-3.25-0.315-4.617-0.946c-1.369-0.63-2.544-1.479-3.528-2.549
		c-0.983-1.069-1.736-2.297-2.26-3.687c-0.524-1.39-0.786-2.854-0.786-4.393v-0.064c0-1.539,0.267-3.002,0.801-4.392
		c0.534-1.389,1.288-2.619,2.261-3.688c0.973-1.068,2.148-1.918,3.527-2.549c1.378-0.63,2.923-0.946,4.633-0.946
		c1.688,0,3.222,0.315,4.601,0.946c1.379,0.63,2.56,1.48,3.543,2.549c0.983,1.069,1.736,2.298,2.261,3.688
		c0.523,1.39,0.786,2.854,0.786,4.392c0.042,0,0.042,0.022,0,0.064c0,1.539-0.268,3.003-0.802,4.393s-1.288,2.618-2.26,3.687
		c-0.974,1.069-2.154,1.918-3.543,2.549C257.935,144.737,256.396,145.052,254.708,145.052z M254.772,144.058
		c1.501,0,2.868-0.283,4.101-0.85c1.234-0.566,2.29-1.331,3.169-2.292c0.878-0.962,1.565-2.084,2.058-3.367
		c0.493-1.283,0.74-2.629,0.74-4.04v-0.064c0-1.411-0.247-2.757-0.74-4.04c-0.493-1.282-1.185-2.41-2.075-3.383
		c-0.89-0.972-1.957-1.748-3.2-2.324c-1.245-0.578-2.616-0.866-4.117-0.866s-2.874,0.283-4.117,0.849
		c-1.245,0.567-2.306,1.331-3.186,2.292c-0.878,0.962-1.565,2.084-2.059,3.367c-0.493,1.283-0.739,2.629-0.739,4.04v0.064
		c0,1.411,0.246,2.757,0.739,4.04c0.493,1.282,1.19,2.41,2.09,3.382c0.901,0.973,1.974,1.748,3.217,2.325
		C251.898,143.77,253.271,144.058,254.772,144.058z"/>
	<path fill="#121027" d="M269.361,122.223h9.266c1.431,0,2.688,0.187,3.768,0.561c1.079,0.374,1.961,0.903,2.646,1.587
		c0.513,0.535,0.913,1.154,1.202,1.86c0.288,0.706,0.433,1.475,0.433,2.308v0.064c0,0.941-0.172,1.785-0.513,2.533
		c-0.342,0.748-0.829,1.39-1.459,1.924c-0.631,0.535-1.379,0.961-2.245,1.282c-0.866,0.32-1.812,0.524-2.837,0.609l7.471,9.715
		h-1.379l-7.311-9.587h-0.095h-7.856v9.587h-1.089V122.223z M278.338,134.086c1.154,0,2.18-0.133,3.078-0.401
		c0.898-0.267,1.656-0.641,2.277-1.122c0.62-0.481,1.089-1.053,1.41-1.716c0.321-0.662,0.481-1.389,0.481-2.18v-0.064
		c0-1.688-0.615-3.009-1.843-3.959c-1.23-0.951-2.956-1.427-5.178-1.427h-8.113v10.87H278.338z"/>
	<path fill="#121027" d="M298.923,122.062h1.026l10.645,22.605h-1.186l-3.047-6.541h-13.883l-3.079,6.541h-1.122L298.923,122.062z
		 M305.881,137.132l-6.477-13.787l-6.445,13.787H305.881z"/>
</g>
<path fill="#ED1C24" d="M286.604,248.956c-13.596,0-24.62,11.023-24.62,24.621c0,13.598,11.023,24.62,24.62,24.62
	c13.597,0,24.619-11.022,24.619-24.62C311.223,259.979,300.201,248.956,286.604,248.956z M286.604,291.091
	c-9.673,0-17.515-7.841-17.515-17.515c0-9.673,7.842-17.515,17.515-17.515s17.514,7.841,17.514,17.515
	C304.118,283.25,296.276,291.091,286.604,291.091z"/>
<circle fill="#33A3DC" cx="187.376" cy="238.228" r="37.45"/>
<circle fill="#33A3DC" cx="286.603" cy="273.301" r="12.101"/>
<g>
	<path fill="#121027" d="M129.343,122.223h9.234c1.282,0,2.426,0.171,3.43,0.513c1.004,0.342,1.817,0.823,2.438,1.443
		c0.962,0.962,1.442,2.169,1.442,3.623v0.064c0,0.727-0.107,1.379-0.32,1.957c-0.214,0.577-0.508,1.09-0.882,1.539
		c-0.374,0.449-0.812,0.829-1.314,1.139s-1.042,0.54-1.62,0.689c0.727,0.128,1.416,0.348,2.068,0.657
		c0.652,0.311,1.223,0.695,1.716,1.154c0.49,0.46,0.876,0.994,1.154,1.604c0.278,0.609,0.417,1.298,0.417,2.068v0.064
		c0,1.881-0.71,3.34-2.131,4.376c-1.422,1.037-3.394,1.555-5.916,1.555h-9.715V122.223z M138.802,132.836
		c0.833,0,1.613-0.102,2.34-0.305s1.363-0.508,1.908-0.914c0.546-0.406,0.973-0.914,1.284-1.523
		c0.309-0.609,0.464-1.319,0.464-2.132v-0.064c0-1.411-0.546-2.543-1.635-3.399c-1.091-0.854-2.629-1.282-4.617-1.282h-8.113v9.619
		H138.802z M139.09,143.673c2.18,0,3.874-0.433,5.082-1.299c1.208-0.866,1.812-2.068,1.812-3.607v-0.064
		c0-0.791-0.166-1.485-0.497-2.083c-0.332-0.598-0.796-1.106-1.395-1.523c-0.599-0.417-1.314-0.732-2.148-0.946
		c-0.834-0.213-1.742-0.321-2.726-0.321h-8.786v9.844H139.09z"/>
	<path fill="#121027" d="M150.537,122.223h1.089v22.444h-1.089V122.223z"/>
	<path fill="#121027" d="M166.279,145.052c-1.582,0-3.045-0.305-4.392-0.913c-1.347-0.609-2.513-1.432-3.495-2.469
		c-0.983-1.037-1.748-2.255-2.292-3.655c-0.546-1.4-0.817-2.901-0.817-4.505v-0.064c0-1.582,0.271-3.073,0.817-4.473
		c0.544-1.4,1.309-2.629,2.292-3.687c0.982-1.058,2.153-1.897,3.51-2.517c1.357-0.62,2.838-0.93,4.442-0.93
		c1.047,0,1.982,0.091,2.806,0.272c0.822,0.182,1.575,0.433,2.26,0.753c0.685,0.32,1.309,0.695,1.876,1.122
		c0.566,0.428,1.127,0.898,1.684,1.411l-0.77,0.801c-0.471-0.449-0.968-0.876-1.492-1.283c-0.523-0.406-1.105-0.764-1.747-1.074
		c-0.643-0.31-1.342-0.556-2.101-0.738c-0.759-0.181-1.608-0.272-2.549-0.272c-1.432,0-2.753,0.277-3.96,0.833
		c-1.208,0.557-2.255,1.315-3.142,2.277c-0.887,0.962-1.583,2.084-2.084,3.367c-0.502,1.282-0.753,2.65-0.753,4.104v0.064
		c0,1.454,0.25,2.822,0.753,4.104c0.502,1.283,1.202,2.405,2.1,3.367c0.899,0.962,1.956,1.721,3.175,2.277
		c1.219,0.556,2.533,0.833,3.944,0.833c1.751,0,3.27-0.342,4.552-1.026s2.426-1.539,3.432-2.565l0.769,0.737
		c-0.535,0.535-1.107,1.038-1.716,1.507c-0.608,0.47-1.277,0.876-2.003,1.218c-0.727,0.342-1.513,0.615-2.356,0.817
		C168.176,144.95,167.263,145.052,166.279,145.052z"/>
	<path fill="#121027" d="M177.694,122.223h1.089v22.444h-1.089V122.223z"/>
	<path fill="#121027" d="M189.3,123.217h-7.984v-0.994h17.09v0.994h-8.016v21.451h-1.09V123.217z"/>
	<path fill="#121027" d="M209.275,122.062h1.026l10.645,22.605h-1.186l-3.046-6.541H202.83l-3.078,6.541h-1.122L209.275,122.062z
		 M216.233,137.132l-6.477-13.787l-6.445,13.787H216.233z"/>
	<path fill="#121027" d="M233.323,145.052c-1.582,0-3.045-0.305-4.392-0.913c-1.347-0.609-2.513-1.432-3.495-2.469
		c-0.983-1.037-1.748-2.255-2.292-3.655c-0.546-1.4-0.817-2.901-0.817-4.505v-0.064c0-1.582,0.271-3.073,0.817-4.473
		c0.544-1.4,1.309-2.629,2.292-3.687c0.982-1.058,2.153-1.897,3.51-2.517c1.357-0.62,2.838-0.93,4.442-0.93
		c1.047,0,1.982,0.091,2.806,0.272c0.822,0.182,1.575,0.433,2.26,0.753c0.685,0.32,1.309,0.695,1.876,1.122
		c0.566,0.428,1.127,0.898,1.684,1.411l-0.77,0.801c-0.471-0.449-0.968-0.876-1.492-1.283c-0.523-0.406-1.105-0.764-1.747-1.074
		c-0.643-0.31-1.342-0.556-2.101-0.738c-0.759-0.181-1.608-0.272-2.549-0.272c-1.431,0-2.752,0.277-3.959,0.833
		c-1.208,0.557-2.255,1.315-3.142,2.277c-0.887,0.962-1.583,2.084-2.084,3.367c-0.502,1.282-0.753,2.65-0.753,4.104v0.064
		c0,1.454,0.25,2.822,0.753,4.104c0.502,1.283,1.202,2.405,2.1,3.367c0.899,0.962,1.956,1.721,3.175,2.277
		c1.219,0.556,2.533,0.833,3.944,0.833c1.751,0,3.27-0.342,4.552-1.026s2.426-1.539,3.432-2.565l0.769,0.737
		c-0.535,0.535-1.107,1.038-1.716,1.507c-0.608,0.47-1.277,0.876-2.003,1.218c-0.727,0.342-1.513,0.615-2.356,0.817
		C235.219,144.95,234.306,145.052,233.323,145.052z"/>
	<path fill="#121027" d="M254.708,145.052c-1.71,0-3.25-0.315-4.617-0.946c-1.369-0.63-2.544-1.479-3.528-2.549
		c-0.983-1.069-1.736-2.297-2.26-3.687c-0.524-1.39-0.786-2.854-0.786-4.393v-0.064c0-1.539,0.267-3.002,0.801-4.392
		c0.534-1.389,1.288-2.619,2.261-3.688c0.973-1.068,2.148-1.918,3.527-2.549c1.378-0.63,2.923-0.946,4.633-0.946
		c1.688,0,3.222,0.315,4.601,0.946c1.379,0.63,2.56,1.48,3.543,2.549c0.983,1.069,1.736,2.298,2.261,3.688
		c0.523,1.39,0.786,2.854,0.786,4.392c0.042,0,0.042,0.022,0,0.064c0,1.539-0.268,3.003-0.802,4.393s-1.288,2.618-2.26,3.687
		c-0.974,1.069-2.154,1.918-3.543,2.549C257.935,144.737,256.396,145.052,254.708,145.052z M254.772,144.058
		c1.501,0,2.868-0.283,4.101-0.85c1.234-0.566,2.29-1.331,3.169-2.292c0.878-0.962,1.565-2.084,2.058-3.367
		c0.493-1.283,0.74-2.629,0.74-4.04v-0.064c0-1.411-0.247-2.757-0.74-4.04c-0.493-1.282-1.185-2.41-2.075-3.383
		c-0.89-0.972-1.957-1.748-3.2-2.324c-1.245-0.578-2.616-0.866-4.117-0.866s-2.874,0.283-4.117,0.849
		c-1.245,0.567-2.306,1.331-3.186,2.292c-0.878,0.962-1.565,2.084-2.059,3.367c-0.493,1.283-0.739,2.629-0.739,4.04v0.064
		c0,1.411,0.246,2.757,0.739,4.04c0.493,1.282,1.19,2.41,2.09,3.382c0.901,0.973,1.974,1.748,3.217,2.325
		C251.898,143.77,253.271,144.058,254.772,144.058z"/>
	<path fill="#121027" d="M269.361,122.223h9.266c1.431,0,2.688,0.187,3.768,0.561c1.079,0.374,1.961,0.903,2.646,1.587
		c0.513,0.535,0.913,1.154,1.202,1.86c0.288,0.706,0.433,1.475,0.433,2.308v0.064c0,0.941-0.172,1.785-0.513,2.533
		c-0.342,0.748-0.829,1.39-1.459,1.924c-0.631,0.535-1.379,0.961-2.245,1.282c-0.866,0.32-1.812,0.524-2.837,0.609l7.471,9.715
		h-1.379l-7.311-9.587h-0.095h-7.856v9.587h-1.089V122.223z M278.338,134.086c1.154,0,2.18-0.133,3.078-0.401
		c0.898-0.267,1.656-0.641,2.277-1.122c0.62-0.481,1.089-1.053,1.41-1.716c0.321-0.662,0.481-1.389,0.481-2.18v-0.064
		c0-1.688-0.615-3.009-1.843-3.959c-1.23-0.951-2.956-1.427-5.178-1.427h-8.113v10.87H278.338z"/>
	<path fill="#121027" d="M298.923,122.062h1.026l10.645,22.605h-1.186l-3.047-6.541h-13.883l-3.079,6.541h-1.122L298.923,122.062z
		 M305.881,137.132l-6.477-13.787l-6.445,13.787H305.881z"/>
</g>
<path fill="#50B848" d="M287.657,269.835c-8.866,0-13.081-0.582-17.935-3.04c-1.523-0.715-5.882-4.234-5.882-4.234l-0.014,0.007
	c-6.837-6.823-7.726-16.991-7.726-26.786c0-23.399-12.828-43.972-32.082-55.58l8.176-11.666c0.145-0.205,0.26-0.42,0.354-0.641
	h10.481c1.914,0,3.465-1.552,3.465-3.465c0-1.914-1.551-3.466-3.465-3.466h-24.647c-1.914,0-3.467,1.552-3.467,3.466
	c0,1.914,1.553,3.465,3.467,3.465h5.798l-6.314,9.009c-8.091-3.824-17.078-6.157-26.571-6.615v-9.709
	c0-1.914-1.553-3.466-3.466-3.466h-16.806c-1.913,0-3.464,1.552-3.464,3.466c0,1.914,1.551,3.465,3.464,3.465h13.34v9.626v9.759
	v1.911v55.136c0,1.915,1.553,3.465,3.466,3.465c1.914,0,3.466-1.551,3.466-3.465v-55.136v-1.882v-6.23
	c32.217,1.723,57.874,27.327,57.874,58.553c0,8.454,0.006,24.564,12.567,34.143c1.166,1.304,6.717,3.897,6.717,3.897
	c5.479,2.373,10.168,2.945,19.206,2.945c1.914,0,3.466-1.551,3.466-3.466C291.123,271.387,289.571,269.835,287.657,269.835z"/>
</svg>
